<svg width="29" height="29" viewBox="0 0 29 29" fill="none" xmlns="http://www.w3.org/2000/svg">
<path d="M11 0C10.48 0 9.94 0.18 9.56 0.56C9.18 0.94 9 1.48 9 2V3H0V23H11.2C11.07 22.36 11 21.69 11 21H2V14.44C2.59 14.78 3.27 15 4 15H13.01C13.57 14.24 14.25 13.56 15.01 13H4C2.81 13 2 12.19 2 11V5H24V11C24 11.16 23.99 11.31 23.96 11.45C24.68 11.67 25.36 11.97 26 12.34V3H17V2C17 1.48 16.82 0.94 16.44 0.56C16.06 0.18 15.52 0 15 0H11ZM11 2H15V3H11V2ZM6 9V12H8V9H6ZM18 9V11.46C18.6512 11.2565 19.3213 11.1191 20 11.05V9H18ZM21 13C16.59 13 13 16.59 13 21C13 25.41 16.59 29 21 29C25.41 29 29 25.41 29 21C29 16.59 25.41 13 21 13ZM21 15C24.32 15 27 17.68 27 21C27 24.32 24.32 27 21 27C17.68 27 15 24.32 15 21C15 17.68 17.68 15 21 15ZM20 16V22H25V20H22V16H20Z" fill="black"/>
</svg>
