<svg width="10" height="11" viewBox="0 0 10 11" fill="none" xmlns="http://www.w3.org/2000/svg">
<path d="M5 0.5C6.19347 0.5 7.33807 0.974106 8.18198 1.81802C9.02589 2.66193 9.5 3.80653 9.5 5C9.5 6.863 8.08 8.815 5.3 10.9C5.21345 10.9649 5.10819 11 5 11C4.89181 11 4.78655 10.9649 4.7 10.9C1.92 8.815 0.5 6.863 0.5 5C0.5 3.80653 0.974106 2.66193 1.81802 1.81802C2.66193 0.974106 3.80653 0.5 5 0.5ZM5 3.5C4.60218 3.5 4.22064 3.65804 3.93934 3.93934C3.65804 4.22064 3.5 4.60218 3.5 5C3.5 5.39782 3.65804 5.77936 3.93934 6.06066C4.22064 6.34196 4.60218 6.5 5 6.5C5.39782 6.5 5.77936 6.34196 6.06066 6.06066C6.34196 5.77936 6.5 5.39782 6.5 5C6.5 4.60218 6.34196 4.22064 6.06066 3.93934C5.77936 3.65804 5.39782 3.5 5 3.5Z" fill="black"/>
</svg>
