<svg width="25" height="26" viewBox="0 0 25 26" fill="none" xmlns="http://www.w3.org/2000/svg">
<path d="M12.8199 7.82093C11.5754 7.82093 10.3819 8.3153 9.5019 9.19528C8.62192 10.0753 8.12755 11.2688 8.12755 12.5133C8.12755 13.7578 8.62192 14.9513 9.5019 15.8313C10.3819 16.7112 11.5754 17.2056 12.8199 17.2056C14.0644 17.2056 15.2579 16.7112 16.1379 15.8313C17.0179 14.9513 17.5122 13.7578 17.5122 12.5133C17.5122 11.2688 17.0179 10.0753 16.1379 9.19528C15.2579 8.3153 14.0644 7.82093 12.8199 7.82093ZM9.69166 12.5133C9.69166 11.6836 10.0212 10.8879 10.6079 10.3013C11.1946 9.71462 11.9902 9.38504 12.8199 9.38504C13.6496 9.38504 14.4452 9.71462 15.0319 10.3013C15.6185 10.8879 15.9481 11.6836 15.9481 12.5133C15.9481 13.3429 15.6185 14.1386 15.0319 14.7253C14.4452 15.3119 13.6496 15.6415 12.8199 15.6415C11.9902 15.6415 11.1946 15.3119 10.6079 14.7253C10.0212 14.1386 9.69166 13.3429 9.69166 12.5133ZM10.0007 24.6933C10.9261 24.9142 11.8733 25.0256 12.8243 25.0256C13.7732 25.0246 14.7187 24.9124 15.6416 24.6915C15.8842 24.6331 16.1029 24.5013 16.2679 24.3141C16.4329 24.1269 16.5362 23.8934 16.5638 23.6454L16.7752 21.724C16.811 21.3804 16.9682 21.0609 17.2185 20.8229C17.4689 20.5849 17.796 20.4441 18.141 20.4258C18.3706 20.4158 18.599 20.459 18.8092 20.5509L20.5654 21.3211C20.7181 21.3898 20.8834 21.4258 21.0509 21.4269C21.2183 21.428 21.3841 21.3941 21.5376 21.3274C21.6922 21.2617 21.8304 21.1641 21.9443 21.0408C23.2356 19.6489 24.1997 17.9861 24.766 16.1739C24.8401 15.9335 24.8378 15.676 24.7594 15.437C24.6809 15.1979 24.5302 14.9891 24.328 14.8394L22.7677 13.6882C22.5818 13.5533 22.4306 13.3762 22.3263 13.1715C22.222 12.9669 22.1676 12.7405 22.1676 12.5108C22.1676 12.2811 22.222 12.0546 22.3263 11.85C22.4306 11.6453 22.5818 11.4683 22.7677 11.3333L24.323 10.1846C24.5258 10.0346 24.6768 9.8253 24.7553 9.58563C24.8337 9.34597 24.8357 9.08783 24.761 8.84698C24.1945 7.03453 23.2293 5.37196 21.9362 3.98134C21.7649 3.79822 21.5409 3.67279 21.2953 3.62236C21.0496 3.57193 20.7944 3.59899 20.5648 3.6998L18.8092 4.47309C18.6278 4.55505 18.4301 4.59822 18.2299 4.59822C17.8695 4.59751 17.5221 4.4638 17.2542 4.22273C16.9863 3.98165 16.8169 3.65018 16.7784 3.29187L16.5656 1.3774C16.5384 1.12612 16.4333 0.889649 16.265 0.701068C16.0968 0.512487 15.8737 0.381237 15.6272 0.325687C14.709 0.1207 13.7719 0.011877 12.8312 0.000976562C11.884 0.0119085 10.9405 0.120936 10.0157 0.326312C9.76947 0.381546 9.54661 0.512374 9.37834 0.700497C9.21008 0.88862 9.10481 1.12463 9.07728 1.37552L8.86456 3.29125C8.82442 3.65013 8.65334 3.9816 8.38406 4.22221C8.10926 4.45566 7.76288 4.58812 7.40242 4.5976C7.20362 4.59746 7.00699 4.55614 6.82495 4.47622L5.07314 3.70292C4.84277 3.60121 4.58644 3.57379 4.33976 3.62447C4.09309 3.67515 3.86833 3.80141 3.69672 3.98572C2.40543 5.37665 1.44137 7.03864 0.87506 8.85011C0.800249 9.09086 0.802219 9.34892 0.880695 9.5885C0.959171 9.82808 1.11026 10.0373 1.31301 10.1871L2.86962 11.3358C3.14769 11.5413 3.3442 11.8385 3.42445 12.1748C3.5047 12.5112 3.46353 12.865 3.3082 13.174C3.2049 13.3788 3.05488 13.5565 2.87025 13.6926L1.31239 14.8432C1.10981 14.9929 0.958827 15.2019 0.880355 15.4412C0.801883 15.6805 0.799814 15.9384 0.874435 16.1789C1.43974 17.9921 2.40388 19.6558 3.6961 21.0477C3.86681 21.2319 4.09074 21.3583 4.33668 21.4092C4.58262 21.4601 4.83832 21.4331 5.06814 21.3318L6.83121 20.5578C7.01327 20.4777 7.20973 20.4365 7.40868 20.4365H7.41369C7.77271 20.4369 8.11902 20.5694 8.38667 20.8087C8.65433 21.048 8.82465 21.3773 8.86519 21.734L9.07665 23.6466C9.10419 23.895 9.20773 24.1288 9.37312 24.3162C9.53851 24.5035 9.75769 24.6352 10.0007 24.6933ZM15.0459 23.2262C13.5819 23.539 12.0679 23.539 10.6039 23.2262L10.4137 21.5607C10.331 20.8217 9.97912 20.139 9.42523 19.6428C8.87135 19.1466 8.15419 18.8717 7.41056 18.8705H7.4043C6.98956 18.8688 6.57907 18.954 6.19931 19.1207L4.66898 19.792C3.67625 18.6724 2.9188 17.3645 2.44168 15.9462L3.7962 14.9452C4.17792 14.6637 4.48818 14.2965 4.702 13.8732C4.91582 13.4499 5.02722 12.9822 5.02722 12.508C5.02722 12.0337 4.91582 11.5661 4.702 11.1427C4.48818 10.7194 4.17792 10.3522 3.7962 10.0707L2.4423 9.06972C2.92033 7.65301 3.67795 6.3467 4.67023 5.22825L6.1918 5.89894C6.57218 6.06764 6.98381 6.1544 7.39992 6.15358H7.40618C8.15158 6.15203 8.87033 5.87617 9.42536 5.37861C9.98039 4.88105 10.3329 4.1966 10.4155 3.45579L10.6032 1.79158C11.3372 1.6445 12.0833 1.56575 12.8318 1.55633C13.5744 1.56572 14.3146 1.64392 15.0428 1.79095L15.2305 3.45454C15.3108 4.19531 15.6617 4.88038 16.2158 5.37845C16.77 5.87651 17.4885 6.15252 18.2336 6.15358C18.6538 6.16351 19.0706 6.0757 19.4511 5.89706L20.9714 5.227C21.9643 6.34536 22.7222 7.65196 23.2 9.06909L21.8505 10.0657C21.466 10.3459 21.1532 10.713 20.9376 11.137C20.722 11.5611 20.6096 12.0301 20.6096 12.5058C20.6096 12.9815 20.722 13.4505 20.9376 13.8745C21.1532 14.2985 21.466 14.6656 21.8505 14.9458L23.205 15.9468C22.7267 17.3633 21.9694 18.6695 20.9777 19.7883L19.4511 19.1188C19.0165 18.926 18.5425 18.8387 18.0677 18.864C17.5929 18.8893 17.1309 19.0265 16.7192 19.2644C16.3076 19.5024 15.958 19.8342 15.6991 20.233C15.4401 20.6317 15.2792 21.086 15.2293 21.5589L15.0459 23.2262Z" fill="#807EFD"/>
</svg>
